<svg class="h-8 w-auto fill-basics-500 transition-colors dark-bg:fill-neutral-100 xl:h-8" width="125" height="32" viewBox="0 0 125 32" fill="inherit" xmlns="http://www.w3.org/2000/svg">
  <g id="Logo">
    <path id="Vector" d="M44.9638 26.9348C43.2608 26.9348 41.7635 26.6119 40.4716 25.9659C39.1993 25.3201 38.2108 24.3902 37.5061 23.1768C36.8211 21.9631 36.4687 20.544 36.4492 18.9194H39.6788C39.6985 20.5245 40.1781 21.7771 41.1175 22.6775C42.057 23.578 43.3588 24.0281 45.0225 24.0281C46.51 24.0281 47.714 23.6856 48.6339 23.0006C49.5734 22.2959 50.0432 21.3857 50.0432 20.2699C50.0432 19.3109 49.6908 18.5671 48.9862 18.0386C48.3011 17.4905 47.342 17.2166 46.1088 17.2166H43.3783C42.0668 17.2166 40.9121 16.9718 39.9137 16.4824C38.9155 15.9931 38.1326 15.3081 37.565 14.4273C37.0169 13.5269 36.7428 12.4992 36.7428 11.3444C36.7428 10.0917 37.0657 8.98573 37.7117 8.02661C38.3772 7.06751 39.307 6.33349 40.501 5.82458C41.6949 5.29607 43.0749 5.03183 44.6408 5.03183C47.1658 5.03183 49.1623 5.69735 50.6303 7.02835C52.0985 8.35937 52.8813 10.2287 52.9792 12.6362H49.7496C49.6713 11.0899 49.1917 9.92527 48.3109 9.14232C47.4496 8.3398 46.2068 7.93854 44.5821 7.93854C43.1532 7.93854 42.0277 8.23214 41.2056 8.81936C40.3835 9.40656 39.9725 10.1993 39.9725 11.1976C39.9725 12.098 40.2856 12.8124 40.9121 13.3409C41.5579 13.8498 42.4192 14.1042 43.4957 14.1042H46.2263C48.4185 14.1042 50.141 14.6425 51.3938 15.7191C52.6464 16.7956 53.2729 18.2637 53.2729 20.1232C53.2729 21.4737 52.9303 22.6678 52.2452 23.7052C51.5602 24.723 50.5913 25.5158 49.3385 26.0834C48.0857 26.6511 46.6276 26.9348 44.9638 26.9348Z"/>
    <path id="Vector_2" d="M62.221 26.6706C60.8508 26.6706 59.6079 26.3575 58.4921 25.731C57.3764 25.0852 56.4957 24.2141 55.8497 23.1179C55.2234 22.0023 54.9102 20.7594 54.9102 19.3892C54.9102 18.0191 55.2234 16.7761 55.8497 15.6604C56.4957 14.5446 57.3764 13.6736 58.4921 13.0473C59.6079 12.4013 60.8508 12.0784 62.221 12.0784C63.5911 12.0784 64.8341 12.4013 65.9497 13.0473C67.085 13.6736 67.9658 14.5446 68.5921 15.6604C69.2381 16.7761 69.561 18.0191 69.561 19.3892C69.561 20.7594 69.2381 22.0023 68.5921 23.1179C67.9658 24.2141 67.0948 25.0852 65.979 25.731C64.8634 26.3575 63.6107 26.6706 62.221 26.6706ZM62.221 23.6759C63.3758 23.6759 64.335 23.2746 65.0983 22.4721C65.8617 21.6499 66.2434 20.6223 66.2434 19.3892C66.2434 18.1364 65.8617 17.1088 65.0983 16.3063C64.335 15.4842 63.3758 15.0732 62.221 15.0732C61.0661 15.0732 60.107 15.4842 59.3437 16.3063C58.5998 17.1088 58.2279 18.1364 58.2279 19.3892C58.2279 20.6418 58.5998 21.6696 59.3437 22.4721C60.107 23.2746 61.0661 23.6759 62.221 23.6759Z"/>
    <path id="Vector_3" d="M77.6893 26.6706C75.8102 26.6706 74.303 26.1128 73.1677 24.9971C72.0325 23.8815 71.4648 22.384 71.4648 20.5049V12.372H74.7826V20.27C74.7826 21.3662 75.0273 22.1981 75.5166 22.7657C76.0256 23.3333 76.7497 23.6171 77.6893 23.6171C78.5897 23.6171 79.2748 23.3333 79.7446 22.7657C80.2339 22.1981 80.4786 21.3759 80.4786 20.2993V12.372H83.7963V20.5342C83.7963 21.7283 83.5321 22.7951 83.0035 23.7346C82.4947 24.6545 81.7802 25.3788 80.8602 25.9073C79.9403 26.4162 78.8832 26.6706 77.6893 26.6706Z"/>
    <path id="Vector_4" d="M86.1445 17.8037C86.1445 16.0616 86.6338 14.6719 87.6125 13.6344C88.6108 12.5971 89.9516 12.0784 91.635 12.0784H94.3948V15.3081H92.2221C91.263 15.3081 90.5584 15.5527 90.1081 16.0421C89.6775 16.5119 89.4623 17.2752 89.4623 18.3321V26.377H86.1445V17.8037Z"/>
    <path id="Vector_5" d="M102.705 23.6759C103.488 23.6759 104.163 23.4801 104.731 23.0886C105.318 22.6775 105.769 22.0903 106.082 21.327L109.106 22.5014C108.617 23.7737 107.794 24.7915 106.64 25.5549C105.485 26.2986 104.163 26.6706 102.676 26.6706C101.286 26.6706 100.033 26.3575 98.9178 25.731C97.8216 25.1047 96.9604 24.2435 96.334 23.1473C95.7272 22.0316 95.4238 20.7789 95.4238 19.3892C95.4238 17.9994 95.7371 16.7468 96.3634 15.631C96.9897 14.5153 97.8509 13.6442 98.9471 13.0179C100.043 12.3915 101.286 12.0784 102.676 12.0784C104.222 12.0784 105.583 12.4894 106.757 13.3115C107.951 14.1337 108.773 15.2199 109.223 16.5706L106.317 18.0386C106.101 17.1577 105.651 16.4531 104.966 15.9246C104.281 15.3765 103.527 15.1026 102.705 15.1026C101.55 15.1026 100.601 15.5038 99.8573 16.3063C99.1135 17.1088 98.7416 18.1364 98.7416 19.3892C98.7416 20.6418 99.1135 21.6696 99.8573 22.4721C100.601 23.2746 101.55 23.6759 102.705 23.6759Z"/>
    <path id="Vector_6" d="M124.452 19.3892C124.452 19.859 124.442 20.2699 124.423 20.6223H113.882C114.097 21.601 114.538 22.3644 115.203 22.9124C115.869 23.4605 116.681 23.7345 117.64 23.7345C118.462 23.7345 119.138 23.5975 119.666 23.3235C120.195 23.0299 120.606 22.5894 120.899 22.0023L123.718 23.1179C123.17 24.2141 122.358 25.0852 121.281 25.731C120.205 26.3575 119.001 26.6706 117.67 26.6706C116.28 26.6706 115.047 26.3672 113.97 25.7604C112.894 25.134 112.052 24.2728 111.445 23.1767C110.839 22.061 110.535 20.7985 110.535 19.3892C110.535 17.9799 110.839 16.7271 111.445 15.631C112.052 14.5153 112.894 13.6442 113.97 13.0179C115.047 12.3915 116.27 12.0784 117.64 12.0784C118.913 12.0784 120.068 12.4013 121.105 13.0473C122.142 13.6932 122.955 14.574 123.542 15.6897C124.149 16.8054 124.452 18.0386 124.452 19.3892ZM121.134 18.0386C121.017 17.1774 120.625 16.4629 119.96 15.8952C119.314 15.3081 118.541 15.0144 117.64 15.0144C116.701 15.0144 115.889 15.2884 115.203 15.8366C114.538 16.365 114.097 17.099 113.882 18.0386H121.134Z"/>
    <path id="Vector_7" d="M22.9427 5.94515C20.7349 5.04075 18.2078 4.58854 15.3616 4.58854C12.5154 4.58854 9.94848 5.02744 7.66087 5.90524C9.23027 1.96841 11.7972 0 15.3616 0C18.9793 0 21.5062 1.98172 22.9427 5.94515ZM7.66087 5.90524C6.65006 8.51207 6.14465 11.877 6.14465 16.0001C6.14465 20.1763 6.72985 23.6077 7.90026 26.2943C5.37325 25.4963 3.41813 24.2328 2.03492 22.5038C0.678306 20.7748 0 18.6069 0 16.0001C0 13.7124 0.665006 11.7041 1.99502 9.97509C3.35162 8.21946 5.24024 6.86286 7.66087 5.90524ZM30.444 16.0001C30.444 18.6069 29.779 20.7748 28.4489 22.5038C27.1189 24.2062 25.217 25.4697 22.7431 26.2943C23.8339 23.5546 24.3791 20.1231 24.3791 16.0001C24.3791 11.8238 23.9003 8.47218 22.9427 5.94515C25.2835 6.87615 27.1189 8.21946 28.4489 9.97509C29.779 11.7307 30.444 13.739 30.444 16.0001ZM7.90026 26.2943C9.97509 26.9859 12.4622 27.3317 15.3616 27.3317C18.1281 27.3317 20.5885 26.9859 22.7431 26.2943C22.025 28.1031 21.0408 29.4997 19.7906 30.4839C18.5669 31.4947 17.0907 32 15.3616 32C13.6326 32 12.143 31.4947 10.8928 30.4839C9.66918 29.4997 8.67167 28.1031 7.90026 26.2943Z"/>
  </g>
</svg>
